####
#
# OBJ File Generated by Meshlab
#
####
# Object dual_arm_bulkhead_simple_mesh.obj
#
# Vertices: 114
# Faces: 208
#
####
vn 0.029724 0.215279 -0.976100
v 0.042272 0.029620 0.199143
vn -0.129927 0.941016 0.312421
v 0.042272 0.029620 0.216761
vn 0.757272 0.573527 -0.312420
v 0.063454 0.020846 0.199143
vn 0.131207 0.173243 0.976100
v 0.063454 0.020846 0.216761
vn 0.658815 -0.090963 -0.746786
v 0.072227 -0.000336 0.199143
vn 0.941016 0.129927 0.312421
v 0.072227 -0.000336 0.216761
vn 0.279250 -0.368715 -0.886605
v 0.063454 -0.021518 0.199143
vn 0.530173 -0.401531 0.746786
v 0.063454 -0.021518 0.216761
vn -0.055636 -0.402957 -0.913526
v 0.042272 -0.030292 0.199143
vn 0.063261 -0.458180 0.886605
v 0.042272 -0.030292 0.216761
vn -0.368715 -0.279249 -0.886606
v 0.021089 -0.021518 0.199143
vn -0.245592 -0.324274 0.913527
v 0.021089 -0.021518 0.216761
vn -0.658814 0.090963 -0.746787
v 0.012316 -0.000336 0.199143
vn -0.458181 -0.063261 0.886605
v 0.012316 -0.000336 0.216761
vn -0.573526 0.757272 -0.312421
v 0.021089 0.020846 0.199143
vn -0.530172 0.401531 0.746787
v 0.021089 0.020846 0.216761
vn -0.414457 -0.323273 -0.850717
v -0.265024 0.047442 0.348761
vn -0.519075 0.828504 0.210103
v -0.265024 0.047442 0.355111
vn 0.323663 -0.941811 -0.090740
v -0.225372 0.047442 0.348761
vn 0.298739 0.947950 0.110204
v -0.225372 0.047442 0.355111
vn 0.176553 0.046116 -0.983210
v -0.197333 0.019404 0.348761
vn 0.862857 0.505449 0.000001
v -0.197333 0.019404 0.355111
vn 0.093258 -0.054629 -0.994142
v -0.197333 -0.020249 0.348761
vn 0.967538 -0.252725 0.000000
v -0.197333 -0.020249 0.355111
vn 0.599388 0.484344 -0.637295
v -0.225372 -0.048288 0.348761
vn 0.519440 -0.830044 0.203000
v -0.225372 -0.048288 0.355111
vn -0.278469 0.837441 -0.470264
v -0.265024 -0.048288 0.348761
vn -0.297721 -0.948709 0.106366
v -0.265024 -0.048288 0.355111
vn -0.176553 -0.046116 -0.983210
v -0.293063 -0.020249 0.348761
vn -0.862856 -0.505449 0.000000
v -0.293063 -0.020249 0.355111
vn -0.461839 0.270539 -0.844697
v -0.293063 0.019404 0.348761
vn -0.967538 0.252725 -0.000000
v -0.293063 0.019404 0.355111
vn 0.294353 -0.262112 0.919050
v -0.225372 -0.070553 0.355111
vn 0.270300 -0.962776 0.000000
v -0.225372 -0.070553 0.348761
vn -0.746824 -0.665022 -0.000000
v -0.265024 -0.070553 0.348761
vn -0.076772 -0.273453 0.958817
v -0.265024 -0.070553 0.355111
vn -0.279512 0.960142 -0.000000
v -0.265024 0.070529 0.348761
vn 0.758647 0.651501 -0.000000
v -0.225372 0.070529 0.348761
vn 0.076974 0.264410 0.961334
v -0.225372 0.070529 0.355111
vn -0.295063 0.253390 0.921266
v -0.265024 0.070529 0.355111
vn 0.234564 0.400425 0.885799
v -0.225372 0.047442 0.426812
vn -0.250291 0.958224 0.138421
v -0.265024 0.047442 0.426812
vn 0.958224 0.250291 0.138421
v -0.197333 0.019404 0.426812
vn 0.778736 -0.456173 0.430669
v -0.197333 -0.020249 0.426812
vn 0.195940 -0.750143 0.631580
v -0.225372 -0.048288 0.426812
vn -0.365650 -0.624203 0.690414
v -0.265024 -0.048288 0.426812
vn -0.750143 -0.195940 0.631580
v -0.293063 -0.020249 0.426812
vn -0.778736 0.456173 0.430670
v -0.293063 0.019404 0.426812
vn -0.278752 -0.957532 -0.073688
v -0.265024 0.047442 0.198761
vn 0.743836 -0.638782 -0.196634
v -0.225372 0.047442 0.198761
vn 0.269614 0.960327 -0.071273
v -0.225372 -0.048288 0.198761
vn -0.732682 0.652429 -0.193686
v -0.265024 -0.048288 0.198761
vn 0.732681 -0.652429 -0.193685
v -0.225372 -0.070553 0.198761
vn -0.269614 -0.960327 -0.071273
v -0.265024 -0.070553 0.198761
vn -0.743836 0.638782 -0.196634
v -0.265024 0.070529 0.198761
vn 0.278752 0.957532 -0.073689
v -0.225372 0.070529 0.198761
vn -0.248882 0.094576 0.963905
v -0.367350 0.079987 0.191411
vn -0.716758 0.068092 -0.693989
v -0.367350 0.079987 0.171788
vn 0.000000 -1.000000 0.000000
v -0.367350 -0.170013 0.191411
vn -0.006968 -0.399939 -0.916515
v -0.367350 -0.170013 0.171788
vn 0.716758 0.068092 0.693989
v -0.329350 0.079987 0.191411
vn 0.248882 0.094575 -0.963905
v -0.329350 0.079987 0.171788
vn 0.811505 -0.582290 -0.048978
v -0.329350 -0.170013 0.191411
vn 0.693063 -0.263364 -0.671047
v -0.329350 -0.170013 0.171788
vn -0.219745 0.006489 -0.975536
v -0.367350 -0.120013 0.171788
vn -0.716889 0.065370 0.694116
v -0.367350 -0.120013 0.191411
vn 0.612377 -0.000000 -0.790566
v -0.329350 -0.120013 0.171788
vn 0.421584 0.087645 0.902544
v -0.329350 -0.120013 0.191411
vn -0.990418 0.097284 -0.098023
v -0.373350 -0.120013 0.172412
vn -0.928173 -0.106936 -0.356453
v -0.373350 -0.170013 0.172412
vn -0.826639 -0.200630 0.525753
v -0.373350 -0.170013 0.202412
vn -0.014002 -0.309787 0.950703
v -0.327350 -0.170013 0.214737
vn 0.590259 0.360537 0.722224
v -0.327350 -0.120013 0.214737
vn -0.488134 0.294094 0.821726
v -0.373350 -0.120013 0.202412
vn -0.223501 0.045661 0.973634
v -0.283921 0.107857 0.236824
vn 0.398183 0.046093 -0.916147
v -0.280367 0.107857 0.227424
vn -0.117130 -0.044784 0.992106
v -0.283921 -0.109689 0.236824
vn 0.293964 -0.045660 -0.954725
v -0.280367 -0.109689 0.227424
vn -0.396546 0.044975 0.916912
v -0.414262 0.107857 0.201796
vn 0.223274 0.045493 -0.973693
v -0.411700 0.107857 0.192233
vn -0.294445 -0.045827 0.954569
v -0.414262 -0.109689 0.201796
vn 0.116806 -0.044987 -0.992135
v -0.411700 -0.109689 0.192233
vn 0.004561 0.031600 0.999490
v 0.412349 0.079987 0.198761
vn 0.018318 -0.059401 0.998066
v 0.412349 -0.080013 0.198761
vn -0.216481 -0.051544 -0.974925
v 0.269650 -0.203573 0.001412
vn -0.115556 0.021861 0.993060
v -0.325350 0.079987 0.198762
vn -0.054605 -0.011290 0.998444
v -0.325350 -0.080013 0.198761
vn -0.024093 -0.015352 -0.999592
v -0.265350 -0.203573 0.001413
vn -0.268698 0.641449 0.718571
v -0.325350 0.088967 0.195042
vn 0.310663 0.733311 0.604767
v 0.412350 0.092319 0.191690
vn -0.287401 0.777689 0.559107
v -0.325350 0.165680 0.118329
vn 0.165277 0.798957 0.578231
v 0.269650 0.212527 0.071482
vn -0.672940 0.738313 0.045233
v -0.265350 0.212527 0.071482
vn 0.158739 0.955650 -0.248063
v 0.269650 0.216246 0.014112
vn -0.472278 0.875578 -0.101569
v -0.265350 0.216246 0.014112
vn -0.191608 0.015658 -0.981347
v 0.269650 0.203547 0.001412
vn -0.800875 0.595103 0.066725
v -0.265350 0.216246 0.062502
vn 0.223133 0.965836 0.131805
v 0.269650 0.216246 0.062502
vn -0.022300 0.058610 -0.998032
v -0.265350 0.203547 0.001413
vn 0.303168 -0.919307 0.250928
v 0.269650 -0.216272 0.062502
vn -0.458404 -0.886328 0.065482
v -0.265350 -0.215306 0.067362
vn 0.173286 -0.795771 0.580276
v 0.269650 -0.212553 0.071482
vn -0.716156 -0.617763 -0.324792
v -0.265350 -0.208132 0.075903
vn 0.119592 -0.987912 -0.098632
v 0.269650 -0.216272 0.014112
vn -0.746329 -0.635612 -0.197458
v -0.265350 -0.216272 0.014113
vn 0.435690 -0.694411 0.572685
v 0.412349 -0.092345 0.191690
vn -0.252105 -0.728794 0.636633
v -0.325350 -0.165706 0.118329
vn -0.003981 -0.665933 0.746001
v -0.325350 -0.088993 0.195042
vn 0.952828 0.300189 0.044771
v 0.412350 0.079987 -0.034889
vn 0.921154 -0.384940 0.057411
v 0.412350 -0.080013 -0.034889
vn -0.624705 -0.103316 -0.773996
v 0.412350 -0.130013 -0.154889
vn 0.135918 0.312813 -0.940040
v 0.412350 0.129987 -0.154889
vn 0.945775 -0.311385 0.092460
v 0.412350 -0.130013 -0.076844
vn 0.921339 0.372678 0.110659
v 0.412350 0.129987 -0.076844
# 114 vertices, 0 vertices normals

f 1//1 2//2 4//4
f 1//1 4//4 3//3
f 3//3 4//4 6//6
f 3//3 6//6 5//5
f 5//5 6//6 8//8
f 5//5 8//8 7//7
f 7//7 8//8 10//10
f 7//7 10//10 9//9
f 9//9 10//10 12//12
f 9//9 12//12 11//11
f 11//11 12//12 14//14
f 11//11 14//14 13//13
f 4//4 2//2 16//16
f 4//4 16//16 14//14
f 4//4 14//14 12//12
f 4//4 12//12 10//10
f 4//4 10//10 8//8
f 4//4 8//8 6//6
f 15//15 16//16 2//2
f 15//15 2//2 1//1
f 13//13 14//14 16//16
f 13//13 16//16 15//15
f 1//1 3//3 5//5
f 1//1 5//5 7//7
f 1//1 7//7 9//9
f 1//1 9//9 11//11
f 1//1 11//11 13//13
f 1//1 13//13 15//15
f 20//20 19//19 38//38
f 20//20 38//38 39//39
f 19//19 20//20 22//22
f 19//19 22//22 21//21
f 21//21 22//22 24//24
f 21//21 24//24 23//23
f 23//23 24//24 26//26
f 23//23 26//26 25//25
f 26//26 28//28 36//36
f 26//26 36//36 33//33
f 27//27 28//28 30//30
f 27//27 30//30 29//29
f 26//26 24//24 44//44
f 26//26 44//44 45//45
f 31//31 32//32 18//18
f 31//31 18//18 17//17
f 29//29 30//30 32//32
f 29//29 32//32 31//31
f 17//17 19//19 21//21
f 17//17 21//21 23//23
f 17//17 23//23 25//25
f 17//17 25//25 27//27
f 17//17 27//27 29//29
f 17//17 29//29 31//31
f 34//34 33//33 36//36
f 34//34 36//36 35//35
f 25//25 26//26 33//33
f 25//25 33//33 34//34
f 28//28 27//27 35//35
f 28//28 35//35 36//36
f 38//38 19//19 50//50
f 38//38 50//50 56//56
f 37//37 40//40 39//39
f 37//37 39//39 38//38
f 18//18 20//20 39//39
f 18//18 39//39 40//40
f 17//17 18//18 40//40
f 17//17 40//40 37//37
f 35//35 27//27 52//52
f 35//35 52//52 54//54
f 41//41 42//42 48//48
f 41//41 48//48 47//47
f 41//41 47//47 46//46
f 41//41 46//46 45//45
f 41//41 45//45 44//44
f 41//41 44//44 43//43
f 32//32 30//30 47//47
f 32//32 47//47 48//48
f 22//22 20//20 41//41
f 22//22 41//41 43//43
f 28//28 26//26 45//45
f 28//28 45//45 46//46
f 18//18 32//32 48//48
f 18//18 48//48 42//42
f 20//20 18//18 42//42
f 20//20 42//42 41//41
f 24//24 22//22 43//43
f 24//24 43//43 44//44
f 30//30 28//28 46//46
f 30//30 46//46 47//47
f 52//52 51//51 53//53
f 52//52 53//53 54//54
f 50//50 49//49 55//55
f 50//50 55//55 56//56
f 34//34 35//35 54//54
f 34//34 54//54 53//53
f 37//37 38//38 56//56
f 37//37 56//56 55//55
f 25//25 34//34 53//53
f 25//25 53//53 51//51
f 17//17 37//37 55//55
f 17//17 55//55 49//49
f 27//27 25//25 51//51
f 27//27 51//51 52//52
f 19//19 17//17 49//49
f 19//19 49//49 50//50
f 65//65 60//60 70//70
f 65//65 70//70 69//69
f 60//60 64//64 63//63
f 60//60 63//63 59//59
f 67//67 62//62 61//61
f 67//67 61//61 68//68
f 62//62 58//58 57//57
f 62//62 57//57 61//61
f 63//63 68//68 73//73
f 63//63 73//73 72//72
f 67//67 64//64 60//60
f 67//67 60//60 65//65
f 62//62 67//67 65//65
f 62//62 65//65 58//58
f 57//57 66//66 68//68
f 57//57 68//68 61//61
f 64//64 67//67 68//68
f 64//64 68//68 63//63
f 58//58 65//65 66//66
f 58//58 66//66 57//57
f 69//69 70//70 71//71
f 69//69 71//71 74//74
f 74//74 71//71 72//72
f 74//74 72//72 73//73
f 66//66 65//65 69//69
f 66//66 69//69 74//74
f 68//68 66//66 74//74
f 68//68 74//74 73//73
f 59//59 63//63 72//72
f 59//59 72//72 71//71
f 60//60 59//59 71//71
f 60//60 71//71 70//70
f 76//76 75//75 77//77
f 76//76 77//77 78//78
f 78//78 77//77 81//81
f 78//78 81//81 82//82
f 82//82 81//81 79//79
f 82//82 79//79 80//80
f 80//80 79//79 75//75
f 80//80 75//75 76//76
f 75//75 79//79 81//81
f 75//75 81//81 77//77
f 80//80 76//76 78//78
f 80//80 78//78 82//82
f 106//106 108//108 107//107
f 107//107 108//108 87//87
f 107//107 87//87 86//86
f 107//107 86//86 89//89
f 107//107 89//89 91//91
f 89//89 86//86 83//83
f 89//89 83//83 90//90
f 83//83 86//86 87//87
f 83//83 87//87 84//84
f 97//97 93//93 92//92
f 97//97 92//92 98//98
f 91//91 89//89 90//90
f 91//91 90//90 92//92
f 93//93 91//91 92//92
f 99//99 95//95 94//94
f 99//99 94//94 96//96
f 95//95 97//97 98//98
f 95//95 98//98 94//94
f 104//104 100//100 101//101
f 104//104 101//101 105//105
f 85//85 104//104 105//105
f 85//85 105//105 88//88
f 100//100 102//102 103//103
f 100//100 103//103 101//101
f 102//102 106//106 107//107
f 102//102 107//107 103//103
f 84//84 87//87 108//108
f 84//84 108//108 106//106
f 103//103 107//107 91//91
f 103//103 91//91 93//93
f 101//101 103//103 93//93
f 101//101 93//93 97//97
f 105//105 101//101 97//97
f 105//105 97//97 95//95
f 88//88 105//105 95//95
f 88//88 95//95 99//99
f 96//96 85//85 88//88
f 96//96 88//88 99//99
f 104//104 85//85 111//111
f 96//96 112//112 111//111
f 96//96 111//111 85//85
f 96//96 94//94 112//112
f 106//106 110//110 109//109
f 106//106 109//109 90//90
f 113//113 111//111 112//112
f 113//113 112//112 114//114
f 90//90 83//83 84//84
f 90//90 84//84 106//106
f 110//110 113//113 114//114
f 110//110 114//114 109//109
f 94//94 98//98 114//114
f 94//94 114//114 112//112
f 98//98 92//92 109//109
f 98//98 109//109 114//114
f 92//92 90//90 109//109
f 104//104 111//111 113//113
f 104//104 113//113 100//100
f 100//100 113//113 110//110
f 100//100 110//110 102//102
f 106//106 102//102 110//110
# 208 faces, 0 coords texture

# End of File